<?xml version="1.0" encoding="UTF-8"?>
<svg width="311px" height="163px" viewBox="0 0 311 163" version="1.1" xmlns="http://www.w3.org/2000/svg" xmlns:xlink="http://www.w3.org/1999/xlink">
    <!-- Generator: Sketch 45.1 (43504) - http://www.bohemiancoding.com/sketch -->
    <title>logo_color</title>
    <desc>Created with Sketch.</desc>
    <defs></defs>
    <g id="Page-1" stroke="none" stroke-width="1" fill="none" fill-rule="evenodd">
        <g id="logo_color">
            <g id="logo-copy" transform="translate(10.000000, 10.000000)">
                <ellipse id="Oval" fill="#FFDE26" cx="145.258706" cy="84.5393258" rx="58.3930348" ry="58.4606742"></ellipse>
                <g id="Mills" transform="translate(148.261404, 50.637105) rotate(-2.000000) translate(-148.261404, -50.637105) translate(115.261404, 1.137105)" fill="#CFB086">
                    <path d="M55.4914443,80.254903 C56.5779038,79.582232 57.6377275,78.817317 58.0092266,77.5528658 C58.4984838,75.8882179 58.9554977,74.2221509 59.7223279,72.6242025 C58.0807226,73.8020863 56.3676213,74.8039971 54.6699407,75.8314524 C54.2311513,76.0968311 53.9816161,76.5679846 53.7853524,77.0533295 C53.706847,77.2463322 53.7152583,77.5599615 53.3325442,77.5046152 C53.3563762,76.447358 53.8288108,75.6157436 54.5325562,74.8834688 C55.2699468,74.1171348 56.119488,73.4969718 57.0110857,72.94067 C59.9017689,71.1426233 61.268605,68.4533583 61.5966457,64.9878254 C60.0854156,66.5105596 58.4522217,67.6373545 56.6437923,68.5129621 C56.214816,68.7215753 55.8587377,69.0508151 55.7199513,69.5503514 C55.3820974,68.9585712 55.8699528,68.4718071 55.9204206,67.9296967 L55.9204206,67.9296967 L55.9204206,67.9296967 C57.0895912,66.6666646 58.5237177,65.7754465 60.0069102,64.9566044 C61.197109,64.2995439 61.965341,63.3543985 62.2485214,61.9778355 C62.9270329,58.672665 63.6518065,55.3788476 64.3569538,52.0793537 C64.6092928,51.0731855 65.0130351,50.0982383 64.9765862,49.0310471 L64.9765862,49.0282088 C65.050886,48.7060647 65.1251858,48.3825014 65.1994856,48.0589381 C65.3691135,47.5182469 65.5583677,46.981813 65.4602359,46.3886137 C65.3214494,46.9335624 65.182663,47.4770919 65.0438765,48.0220406 C64.2854577,50.9355292 63.4681598,53.8348264 62.7924521,56.7681829 C62.397121,58.4810815 61.3793538,59.5156325 59.876535,60.1883035 C59.3213893,60.4366525 58.7354021,60.6239786 58.292407,61.0766834 C58.2419392,61.0043074 58.1900695,60.9319314 58.1396017,60.8595554 L58.1396017,60.8595554 L58.1396017,60.8595554 C58.471848,59.9782712 59.2260612,59.4815732 59.8919557,58.9124992 C60.6321501,58.2809831 60.8101892,57.6111504 60.4442977,56.6518137 C59.9270028,55.289442 59.4952228,53.9001067 59.8484973,52.3660194 C60.6153275,49.0367237 61.2980446,45.6875599 62.0158088,42.3454919 C62.1013237,42.014833 62.1868386,41.684174 62.2723534,41.353515 C62.3606721,41.0228561 62.4489907,40.690778 62.5359075,40.360119 L62.5359075,40.360119 C62.6396468,39.9641798 62.7447881,39.5668214 62.8485274,39.169463 C62.9326404,38.8416423 63.0153515,38.5124024 63.0994645,38.1845818 C63.0405854,38.1703904 62.9817063,38.1576182 62.9214254,38.1434268 C62.8387142,38.4684092 62.7560031,38.7933916 62.673292,39.1169549 L62.673292,39.1169549 L62.673292,39.1169549 C62.5709546,39.5143133 62.4686171,39.9102525 62.3662796,40.307611 L62.3662796,40.307611 C62.2821666,40.6396891 62.1980536,40.9717671 62.1139406,41.3038452 L62.1139406,41.3038452 L62.1139406,41.3038452 C62.0298276,41.6359233 61.9443128,41.9680014 61.8601998,42.2986604 C61.1844921,44.7026788 60.3784092,47.0797335 59.8667218,49.5192303 C59.2456876,52.4880652 58.148013,55.1106307 55.8264944,57.1272246 C54.6489125,58.1504225 54.5255468,59.4503522 55.0638699,60.8652319 C55.4535935,61.8870107 55.8615415,62.9031129 56.203601,63.9419213 C56.5849132,65.1013563 56.4377155,65.6988131 55.5559309,66.6198331 C55.914813,64.8586839 55.2685449,63.4650912 54.6222767,62.0686602 C54.3208718,61.4172763 54.0727385,60.7403478 53.7601185,60.0960596 C53.5540417,59.6717376 53.5330135,59.2757983 53.6283415,58.8131596 C54.5073223,54.5926456 55.3624711,50.3664552 56.2246292,46.143103 C56.3269667,45.7457446 56.4293042,45.3498053 56.5302398,44.953866 C56.6227641,44.6757151 56.7713637,44.4089174 56.6774375,44.0839349 C56.4405192,44.32235 56.4419211,44.6288836 56.3900515,44.9169685 L56.3900515,44.9169685 L56.3900515,44.9169685 C56.2891159,45.3129077 56.1881803,45.7102661 56.0872447,46.1062054 L56.0872447,46.1062054 L56.0872447,46.1062054 C54.6881652,51.5698835 53.2666556,57.0264659 51.9068289,62.4986588 C51.4834602,64.2002042 51.605424,65.8918157 52.4956199,67.467058 C53.0661863,68.4760645 53.6493698,69.4793945 54.162459,70.5182029 C54.8549893,71.9174721 54.6250805,73.1861808 53.5540417,74.3257479 C53.9535784,71.5726218 53.8400259,71.0305114 52.2152432,68.8918717 C51.6923408,68.2035902 51.2843928,67.4713154 50.9717728,66.6723412 C50.9507446,66.4750811 50.8792485,66.1245542 50.7264433,66.2196364 C50.4698986,66.3785798 50.5806474,66.7305258 50.6970037,67.0044193 L50.6970037,67.0044193 C50.5399928,67.9140862 50.4460666,68.8393636 50.2147559,69.7291626 C49.6834421,71.7727202 49.9021359,73.6403047 51.1680365,75.3801668 C51.786267,76.2288109 52.3848711,77.1228673 52.6203875,78.1829627 C52.8362775,79.1522334 52.7900154,80.0633195 51.8731837,80.8154622 C52.6105743,77.462041 49.553067,75.8215185 48.8296953,73.1663129 C48.7343672,74.0901711 48.8815649,75.0140294 48.4343642,75.8130037 C48.0011823,76.5878526 48.0208086,77.3854076 48.1063235,78.2014115 C48.2409043,79.4843115 48.7329653,80.6409083 49.384841,81.7407396 C49.9399868,82.6802084 50.5722361,83.5799414 50.9030805,84.6386177 C51.2970097,85.9002306 51.0348576,86.9092371 50.0297073,87.5861656 C50.8105562,86.0605931 50.3367197,84.84865 49.5264312,83.6480599 C48.6965164,82.4205063 47.5932343,81.3746022 47.1151921,79.8916039 C46.9778075,80.6025916 47.0507055,81.3079028 46.864255,81.9365805 C46.1114437,84.4896083 46.5866821,86.6977857 48.3320267,88.7087031 C49.1100719,89.6041786 49.3806354,90.6912377 48.9782949,91.9599463 C48.4091303,93.7508974 48.0109955,95.5971949 47.560991,97.4250435 C47.4670648,97.8053723 47.1137902,98.3105851 47.860994,98.4695285 C48.5507205,98.6156996 48.4441774,98.0267577 48.5128697,97.6904222 C49.0539966,95.0039955 49.697461,92.3487899 50.561021,89.7460923 C50.9423333,88.5923338 51.486264,87.7422707 52.7535664,87.3065956 C54.8045215,86.5998652 56.3409855,85.2758103 56.7082789,82.9228809 C56.7979995,82.3523877 57.0138895,81.8017625 57.1709004,81.2412033 C57.5438013,80.8324918 57.5788484,80.3145067 57.7288499,79.7766538 C57.4078187,79.8263236 57.3195,80.0022966 57.2199663,80.1669165 L57.2199663,80.1669165 C56.3255648,80.937508 55.2755543,81.3873744 54.151244,81.6868124 C53.2105803,81.9365805 52.5292651,82.4886249 52.1605698,83.420998 C52.0694474,83.6551556 52.0526248,83.9673658 51.6755182,84.0482566 C51.7161728,83.0789859 52.1129058,82.3580643 52.8516982,81.7747989 C53.6633886,81.1361872 54.6278842,80.7899177 55.4914443,80.254903 M55.4451822,70.5281369 C55.4283596,70.5167838 55.411537,70.5011733 55.4003219,70.4713714 C55.4045276,70.4330547 55.4073313,70.3933188 55.411537,70.353583 C55.4213501,70.4117676 55.4325652,70.4699522 55.4451822,70.5281369 M55.5096688,70.5352325 C55.603595,70.5111072 55.5335008,70.5636153 55.4676123,70.5409091 C55.4676123,70.5352325 55.4690142,70.5309751 55.4704161,70.5267177 C55.4802292,70.5366517 55.4914443,70.5409091 55.5096688,70.5352325" id="Fill-1"></path>
                    <path d="M12.9470924,60.514705 L12.9470924,60.514705 C11.8073614,61.4371442 10.5891249,62.2474715 9.29658855,62.9215617 C8.15966126,63.514761 7.28068049,64.2839333 6.96806053,65.7044896 C6.65263681,64.9480895 6.86712494,64.3861112 7.1713336,63.8411625 C7.73348877,62.8335752 8.56340363,62.0885281 9.49565597,61.4470782 C10.5302458,60.7346713 11.5662375,60.0251027 12.4690503,59.1395611 C14.1947685,57.4465305 14.7933726,55.2922803 14.9840288,52.9521231 C13.3396197,54.968717 10.7279113,55.5832034 8.95733281,57.3755736 C9.00359496,56.3225739 9.47182395,55.5250188 10.2947294,54.8793114 C11.3153004,54.078918 12.4157787,53.4133427 13.5330796,52.7704735 C14.6405674,52.1347001 15.3821636,51.2505776 15.6583346,49.9307801 C16.5429229,45.7131044 17.4863903,41.508201 18.4060257,37.2990402 L18.4060257,37.2990402 C18.4901387,36.9726386 18.5742517,36.6476562 18.6583647,36.3226738 L18.6583647,36.3226738 L18.6583647,36.3226738 C18.798553,35.7933356 18.9373394,35.2639975 19.0775278,34.7346593 C18.7158419,34.4990825 18.8055624,34.9787509 18.6247195,35.0284207 C17.7134954,38.6089038 16.8022713,42.190806 15.8910472,45.7727082 L15.8910472,45.7727082 L15.8910472,45.7727082 C15.5055293,46.6625072 14.7947745,47.2230664 13.9816823,47.6672563 C13.3031708,48.0376511 12.6078367,48.3768249 11.9195121,48.73019 C11.8928763,48.5882763 11.8676424,48.4463626 11.8410066,48.3044489 L11.8410066,48.3044489 L11.8410066,48.3044489 C12.184468,47.601976 12.8363437,47.198941 13.3914894,46.7107578 C14.1176649,46.0735653 14.3251437,45.4448875 13.9185975,44.4685211 C13.216254,42.7783288 12.9653169,41.0384666 13.5120514,39.1765586 C14.068599,37.2820105 14.3784152,35.310829 14.7961764,33.3737068 C15.2854337,31.93754 15.4718841,30.4346737 15.7326344,28.9488371 C15.8349719,28.5997294 15.9961884,28.2619747 15.9232905,27.8546823 C15.6667459,28.1782456 15.6527271,28.5528978 15.5840348,28.9105204 L15.5840348,28.9105204 C15.3961824,29.6470526 15.2069282,30.3835848 15.0190758,31.1215361 L15.0190758,31.1215361 C14.7709425,32.0453944 14.5186035,32.9678335 14.2746759,33.893111 C13.8471015,35.5109273 13.2989651,37.1102949 13.0269998,38.7550749 C12.5980235,41.3549342 11.055952,43.2012316 9.30499985,44.9368364 C8.23255919,45.998351 7.99844469,47.1904262 8.51994525,48.5811806 C8.91527632,49.6355995 9.32883187,50.6829228 9.6849102,51.7501139 C10.0564093,52.8598792 9.82650041,53.7738035 9.05546464,54.4535702 C9.33864505,53.0883603 8.98256671,51.8551301 8.45265486,50.6517017 C8.06853885,49.7775133 7.68722662,48.9019056 7.2876899,48.0348128 C7.04936976,47.5182469 6.99609819,47.0059384 7.11666015,46.4425409 C7.8890978,42.8350942 8.64331097,39.2248093 9.40453356,35.6145244 C9.90360398,34.3656837 9.87837009,33.0203416 10.1124846,31.7175737 C9.98351133,31.9219295 9.89519269,32.1362192 9.83771547,32.3576046 C8.35452303,38.1604564 6.87413435,43.9618892 5.39654944,49.7661602 C5.32224963,50.0570833 5.18206131,50.3522638 5.34047411,50.6630548 L5.34047411,50.6630548 C4.94233928,52.4185275 5.25215547,54.0505353 6.14235131,55.5988139 C6.70450648,56.5751803 7.25825035,57.5586423 7.73489065,58.5790019 C8.29564394,59.7781728 8.03068801,61.052558 7.04936976,62.0573071 C7.39423303,60.886519 7.45311212,59.8193278 6.97366806,58.766328 C6.26711892,57.213792 4.99000331,56.0387464 4.26242592,54.4592468 C4.20074306,55.5718503 3.90634758,56.5893716 3.6540086,57.6083121 C3.09605908,59.8661594 3.54045606,61.8557897 4.97037694,63.6765426 C5.60262628,64.4797743 6.07225715,65.4107283 6.18300593,66.4651472 C6.27132457,67.3052764 6.13394001,68.0687722 5.29561385,68.6449418 C5.31524022,67.9694326 5.63346771,67.4443518 5.46383984,66.8483142 C4.84560934,64.6770343 3.15073253,63.1386897 2.26614422,61.0993895 C2.27175175,61.8870107 2.37689299,62.687404 2.0502542,63.3302732 C1.10117927,65.2006959 1.59043651,66.9334624 2.39792124,68.6378462 C2.953067,69.8086343 3.67223309,70.8985317 4.22878072,72.0679007 C4.81897356,73.3068074 4.60588731,74.4563085 3.65260672,75.3659755 C4.33532385,73.8645283 3.82363647,72.6029154 2.97409524,71.4150976 C2.45820222,70.6941759 1.94090731,69.9746734 1.39978039,69.2736196 C1.06613219,68.8393636 1.06332842,68.1823031 0.372199994,67.7735916 C0.54042598,68.6591332 0.42266779,69.3857314 0.247432388,70.105234 C-0.293694534,72.3375367 0.0119160073,74.3541307 1.55959508,76.1493392 C2.48343612,77.2222069 2.89138413,78.4313117 2.37969676,79.9384354 C1.79931711,81.6499148 1.44464065,83.4408659 1.00865497,85.2020151 C0.909121266,85.5993735 0.603510725,86.1088438 1.30865798,86.2706254 C1.98156193,86.4224731 1.87081315,85.8250164 1.9591318,85.4830043 C2.57035288,83.131494 3.1367137,80.7672115 3.76475738,78.4213778 C4.17831293,76.8787757 4.74327186,75.5518824 6.5278692,74.9671979 C7.90311663,74.5159123 9.26154147,73.7098424 9.76621943,72.0891877 C10.1825787,70.7509414 10.6101531,69.4169525 11.03212,68.0801253 C11.2634307,67.9211819 11.4246473,67.6813477 11.2592251,67.4415135 C11.1751121,67.3194677 10.9928672,67.5124704 10.924175,67.6685755 L10.924175,67.6685755 L10.924175,67.6685755 C10.3087482,68.5044473 9.43397311,68.9826965 8.48489817,69.2225307 C6.89656448,69.6227274 5.62926206,70.312428 5.2914082,72.1402767 C5.04888241,70.8204791 5.68533739,69.9945413 6.65544057,69.3843123 C7.57087031,68.8081426 8.53957161,68.315702 9.45500136,67.7381132 C10.3872537,67.1505904 11.2339912,66.4154774 11.4905358,65.2915207 C11.8494179,63.7148593 12.4662465,62.2474715 13.1012996,60.7786645 C13.3199934,60.63817 13.420929,60.4409099 13.3704612,60.0790299 C13.205039,60.2507455 13.0760657,60.3827253 12.9470924,60.514705" id="Fill-4"></path>
                    <path d="M43.9563286,51.6507743 L43.9563286,51.6507743 L43.9563286,51.6507743 C41.8240643,53.5893157 39.3567498,55.0212251 36.8642014,56.4063029 C35.5702632,57.1272246 34.7473578,58.1816435 34.3450173,59.5993616 C34.2791288,59.8306809 34.2244553,60.0662577 34.1641744,60.2989962 C33.6875341,59.0132579 34.0352011,57.9034927 34.7038994,56.8760373 C35.7483024,55.2681549 37.1810271,54.0547927 38.7917909,53.0940368 C43.4137998,50.3394916 46.1152288,46.3119803 46.856825,40.9348696 C46.8988815,40.6226594 47.0152378,40.3118684 46.8484137,39.9528267 C44.6474571,42.2986604 42.1044409,44.0214929 39.3160952,45.3923794 C38.3838429,45.8507607 37.7529954,46.5660058 37.4137397,47.5523062 C37.3324304,47.3905245 37.2497193,47.2273238 37.1684101,47.0655421 L37.1684101,47.0655421 C37.3422436,45.129839 38.4609464,43.8426816 39.9511483,42.7584608 C41.4105087,41.6983654 42.9385614,40.7617348 44.5030631,39.8790315 C46.3479414,38.838804 47.4904762,37.3103933 47.9040318,35.1703344 C48.4872152,32.1518297 49.1755399,29.1531928 49.8274155,26.1488795 C50.7274246,22.0092564 51.6372468,17.8710524 52.5414615,13.7314293 L52.5414615,13.7314293 L52.5414615,13.7314293 C52.7895948,12.7919605 53.1610938,11.8780361 53.1190373,10.8775444 L53.1190373,10.8761253 C53.3068897,10.1410123 53.494742,9.40589921 53.6825944,8.67078616 C53.3783857,8.97590065 53.2858614,9.33778063 53.1933372,9.69824147 C51.6610788,15.6642941 50.1035865,21.6260893 48.609179,27.6020759 C48.1661839,29.3788357 47.1582299,30.6361912 45.6876544,31.6196532 C44.3096032,32.5406733 42.6161283,32.8216624 41.1735905,34.1712619 C41.5759309,32.993378 42.0890202,32.2667798 42.7703354,31.6537125 C43.4011829,31.0846385 44.0516567,30.5368516 44.6628778,29.9479097 C45.488587,29.1531928 45.6077471,28.2875192 45.1689576,27.1621434 C44.2871731,24.9042962 43.5119317,22.5882643 44.0754887,20.0849064 C44.7736266,16.9798343 45.4927926,13.8804387 46.1713041,10.7711092 C46.8582269,7.63055862 47.5072988,4.48007411 48.1717915,1.33526616 C48.3105779,0.916620694 48.4689907,0.502232642 48.4269342,-0.000141913717 C48.1493613,0.419922687 48.1030992,0.864112619 48.0259956,1.29836859 L48.0259956,1.29836859 C46.3142962,7.67455187 44.5899799,14.0478969 42.9021125,20.4297567 C42.5979038,21.5792578 42.1002353,22.5996174 41.4020974,23.5390862 C40.4039566,24.8830091 39.2712349,26.113401 38.069821,27.261483 C36.1450354,29.103523 35.6529743,31.203846 36.653919,33.6774021 C36.8067242,34.0563117 36.9342956,34.4479936 37.0800915,34.8311606 C37.541311,36.0445229 38.0544003,37.2408555 38.4595445,38.4726666 C39.0188959,40.1813077 38.4567408,42.0971429 37.2230835,42.8904406 C37.877763,41.0881364 37.5553299,39.3511125 36.8866316,37.6765307 C36.1141939,35.7422467 35.249232,33.8448603 34.4038964,31.9403782 C34.1992214,31.4805778 34.1529593,31.0406453 34.2595024,30.5482047 C34.6253939,28.8778802 34.9702572,27.2032984 35.3123167,25.5272974 C36.4324214,20.0323983 37.5483205,14.5360801 38.6656214,9.04118096 C38.8212304,8.43095198 38.9768395,7.820723 39.1324485,7.21049402 C39.0791769,7.19630265 39.0259054,7.18211127 38.9726338,7.16933904 C38.8156229,7.78240629 38.658612,8.39689269 38.501601,9.00995994 L38.501601,9.00995994 L38.501601,9.00995994 C36.2669992,17.7674554 34.0323973,26.5249508 31.7963936,35.2810271 C30.9061978,38.7678471 31.2622761,42.0517305 33.2389314,45.1227434 C33.976322,46.2665679 34.5230565,47.5338574 35.2268018,48.7032264 C36.3342896,50.5438473 35.765125,53.2231783 34.0380049,55.0907628 C34.1838007,54.5216888 34.2665118,54.0576309 34.420719,53.6191176 C35.0193231,51.906219 34.673058,50.3040131 33.8529563,48.7770216 C33.4337932,47.9979152 32.9655642,47.2344195 32.4300448,46.5333657 C31.4907831,45.305812 30.6720833,44.0200738 30.1421714,42.5555242 C30.0706754,42.356845 30.0959093,42.0602454 29.727214,42.0276052 C29.7720743,44.2386209 29.2491718,46.3616501 28.7921579,48.4889367 C28.2201895,51.151238 28.6631846,53.572286 30.1870317,55.8187802 C30.8753563,56.8348824 31.5132132,57.8893013 32.1132192,58.9607498 C32.7062158,60.0194262 33.0188358,61.1746038 32.9375266,62.4064149 C32.8660305,63.504827 32.3613526,64.3463754 31.3968569,64.9282216 C32.0108817,63.6864766 32.0150874,62.4674378 31.5090076,61.2228545 C31.0561993,60.1102509 30.5389044,59.034545 29.8379628,58.0595977 C28.7402882,56.531187 27.7435492,54.9474299 27.0958792,53.1607363 C27.0117662,52.9279978 26.9823266,52.588824 26.533724,52.6938401 C26.8449421,54.4876295 26.7159688,56.2175577 25.8243711,57.8438889 C25.6295093,58.1986732 25.6253037,58.6286717 25.609883,59.0473172 C25.513153,61.7890902 26.4117602,64.218653 27.817849,66.504883 C28.5692585,67.725341 29.3178641,68.9500563 29.8730098,70.281207 C30.7337661,72.3417942 30.351052,74.481853 28.7486995,75.8030697 C28.8818784,75.2808272 28.9337481,74.8834688 29.0837496,74.5286845 C29.7552517,72.9293169 29.2856208,71.5172755 28.4360795,70.1577421 C28.2370121,69.8398553 28.0337391,69.5248069 27.8220547,69.2140158 C26.4454054,67.1974219 24.7028645,65.4036326 24.1042604,62.9158851 C24.097251,62.883245 24.0033248,62.8718919 23.905193,62.8335752 C23.8799591,64.2115573 24.0453813,65.5952161 23.6738823,66.9178519 C22.632283,70.6246382 23.2266815,73.9071025 25.778109,76.87168 C27.1841978,78.506526 27.8837376,80.4266186 26.9669059,82.666017 C26.581388,83.6054858 26.4369941,84.6471325 26.1818513,85.6419477 C25.6659583,87.6656373 25.1682898,89.6935843 24.6229572,91.7101782 C24.4168804,92.473674 24.949596,92.4552252 25.3855817,92.5957198 C25.8986709,92.7575014 26.0921308,92.5801093 26.1958702,92.0408371 C26.9907379,87.901214 28.1052351,83.8396435 29.2393586,79.7865877 C29.4959033,78.8712443 29.919272,78.0027323 30.2809579,77.1186099 C30.6538588,76.2075238 31.3141458,75.6583177 32.2576132,75.3560415 C33.9174429,74.8238651 35.4146542,73.9525148 36.773079,72.8526835 C37.6071995,72.1771742 38.2268319,71.3299494 38.5464613,70.2826261 C39.0357185,68.6804203 39.5249758,67.0782144 40.0058217,65.4717511 C40.24274,64.6798726 40.698352,63.9518552 40.77125,62.8619579 C39.2151596,64.9438321 37.1165404,65.6732686 34.949229,66.2735636 C33.7380019,66.60848 32.8856569,67.3648801 32.2618188,68.4590349 C31.8692915,69.1487355 31.7627484,69.9250036 31.4767642,70.6785654 C30.8907771,68.4263947 32.152472,66.8908883 33.773049,65.904588 C35.0768003,65.1112903 36.461861,64.4513915 37.7529954,63.6396451 C39.3875912,62.6107706 40.89041,61.3590916 41.3291995,59.3609465 C41.9067754,56.7241897 42.9469727,54.2917886 44.1147414,51.8948659 C44.3348371,51.7415991 44.4960537,51.5656261 44.3572672,51.2704455 C44.2240883,51.3967488 44.0895075,51.5244711 43.9563286,51.6507743 M37.1599988,48.6379461 C37.2511212,48.5996294 37.1768214,48.6805202 37.1277555,48.6748437 C37.1361668,48.6436227 37.1431762,48.6124016 37.1515875,48.5811806 C37.1543913,48.5996294 37.157195,48.6180782 37.1599988,48.6379461" id="Fill-7"></path>
                </g>
                <path d="M17.5516925,131.013146 C17.5516925,131.303035 17.3924403,131.447978 17.0739313,131.447978 L15.7709462,131.447978 C15.5103479,131.447978 15.3510958,131.346518 15.293185,131.143596 C15.1484082,130.911684 14.9819173,130.745001 14.7937074,130.643539 C14.6054975,130.542078 14.4100517,130.484101 14.2073641,130.469607 C14.0046765,130.455112 13.8092307,130.476854 13.6210208,130.534831 C13.4328109,130.592809 13.2807975,130.650786 13.1649761,130.708764 C12.0067613,131.34652 10.5300597,131.665393 8.73482681,131.665393 C7.5476567,131.665393 6.44013046,131.534945 5.41221487,131.274045 C4.38429929,131.013145 3.48669632,130.614553 2.71937905,130.078258 C1.95206178,129.541964 1.34400816,128.860734 0.895199948,128.034551 C0.446391734,127.208367 0.221990993,126.2445 0.221990993,125.142921 L0.221990993,104.966742 C0.221990993,102.734596 0.953103085,101.082253 2.4153492,100.009663 C3.87759532,98.9370733 5.96958932,98.4007865 8.69139398,98.4007865 C11.3842433,98.4007865 13.5341471,98.9443204 15.1411701,100.031404 C16.7481931,101.118489 17.5516925,102.763584 17.5516925,104.966742 L17.5516925,107.923596 L13.6427373,107.923596 C12.8319869,107.923596 12.2528883,107.771406 11.9054238,107.467022 C11.5579594,107.162639 11.3842298,106.662588 11.3842298,105.966854 L11.3842298,105.923371 C11.3842298,105.111681 11.1308741,104.495676 10.6241552,104.075337 C10.1174362,103.654998 9.47318893,103.444831 8.69139398,103.444831 C7.88064366,103.444831 7.2436351,103.647751 6.7803492,104.053596 C6.3170633,104.45944 6.08542383,105.126175 6.08542383,106.05382 L6.08542383,123.360112 C6.08542383,124.519669 6.35325697,125.34584 6.88893129,125.838652 C7.42460561,126.331463 8.08333037,126.577865 8.86512532,126.577865 C9.67587564,126.577865 10.3490779,126.324216 10.8847522,125.81691 C11.4204265,125.309604 11.6882596,124.548657 11.6882596,123.534045 L11.6882596,119.968427 C11.6882596,119.649549 11.623111,119.410394 11.4928119,119.250955 C11.3625127,119.091516 11.1815444,118.939327 10.9499014,118.794382 C10.4287048,118.504493 10.1681104,117.562368 10.1681104,115.967978 L10.1681104,114.402584 L16.2052746,114.402584 C16.6396051,114.402584 16.9725868,114.54028 17.2042298,114.815674 C17.4358727,115.091069 17.5516925,115.446178 17.5516925,115.881011 L17.5516925,131.013146 Z M37.4004983,131.708876 C34.707649,131.708876 32.5794613,131.107366 31.0158714,129.904326 C29.4522815,128.701286 28.6704983,126.983719 28.6704983,124.751573 L28.6704983,105.445056 C28.6704983,103.21291 29.4450428,101.488096 30.994155,100.270562 C32.5432672,99.0530276 34.6786936,98.4442697 37.4004983,98.4442697 C40.1512583,98.4442697 42.2722072,99.0530276 43.7634087,100.270562 C45.2546102,101.488096 46.0001998,103.21291 46.0001998,105.445056 L46.0001998,124.751573 C46.0001998,126.983719 45.2473715,128.701286 43.7416923,129.904326 C42.2360131,131.107366 40.1223029,131.708876 37.4004983,131.708876 Z M39.9630356,105.966854 C39.9630356,105.445054 39.8616933,105.024721 39.6590057,104.705843 C39.4563182,104.386965 39.2174399,104.140563 38.9423639,103.966629 C38.6672879,103.792696 38.3849773,103.669495 38.0954236,103.597022 C37.80587,103.52455 37.5742305,103.488315 37.4004983,103.488315 C37.2267661,103.488315 36.9951266,103.517303 36.7055729,103.575281 C36.4160192,103.633259 36.1264699,103.741965 35.8369162,103.901404 C35.5473625,104.060843 35.2940068,104.285504 35.0768416,104.575393 C34.8596763,104.865282 34.7510953,105.256627 34.7510953,105.749438 L34.7510953,124.360225 C34.7510953,124.795058 34.8379601,125.157414 35.0116923,125.447303 C35.1854245,125.737192 35.4025865,125.9691 35.6631848,126.143034 C35.9237832,126.316967 36.2133325,126.447415 36.5318416,126.534382 C36.8503506,126.621349 37.1399,126.664831 37.4004983,126.664831 C38.008561,126.664831 38.5876597,126.490901 39.1378117,126.143034 C39.6879637,125.795167 39.9630356,125.186409 39.9630356,124.316742 L39.9630356,105.966854 Z M63.1127369,108.619326 C63.1127369,109.199104 63.38057,109.728144 63.9162444,110.206461 C64.4519187,110.684778 65.1251209,111.163087 65.9358712,111.641404 C66.7466215,112.119721 67.6152696,112.619773 68.5418414,113.141573 C69.4684132,113.663373 70.3370612,114.257637 71.1478115,114.924382 C71.9585618,115.591127 72.6317641,116.352074 73.1674384,117.207247 C73.7031127,118.06242 73.9709458,119.069769 73.9709458,120.229326 L73.9709458,125.229888 C73.9709458,126.331466 73.7175902,127.295333 73.2108712,128.121517 C72.7041523,128.947701 72.0454275,129.62893 71.2346772,130.165225 C70.4239269,130.70152 69.5046077,131.100111 68.4766921,131.361011 C67.4487765,131.621911 66.3991602,131.75236 65.3278115,131.75236 C64.2564629,131.75236 63.1996078,131.621911 62.1572145,131.361011 C61.1148212,131.100111 60.1882633,130.70152 59.377513,130.165225 C58.5667627,129.62893 57.9152767,128.947701 57.4230354,128.121517 C56.9307941,127.295333 56.6846772,126.331466 56.6846772,125.229888 L56.6846772,121.53382 L60.2461697,121.53382 C61.0279647,121.53382 61.6143021,121.772975 62.0051996,122.251292 C62.3960971,122.729609 62.5915429,123.302131 62.5915429,123.968876 L62.5915429,124.838539 C62.5915429,125.302362 62.859376,125.708201 63.3950503,126.056067 C63.9307246,126.403934 64.5749719,126.577865 65.3278115,126.577865 C66.0806511,126.577865 66.7104209,126.367699 67.2171399,125.94736 C67.7238588,125.52702 67.9772145,125.113935 67.9772145,124.70809 L67.9772145,121.316404 C67.9772145,120.35977 67.7093814,119.569835 67.173707,118.946573 C66.6380327,118.323311 65.9720692,117.77253 65.1757966,117.294213 C64.379524,116.815896 63.5108759,116.359328 62.5698264,115.924494 C61.628777,115.489661 60.7601289,114.960621 59.9638563,114.33736 C59.1675837,113.714098 58.5016202,112.960398 57.9659458,112.076236 C57.4302715,111.192074 57.1624384,110.068771 57.1624384,108.706292 L57.1624384,105.053708 C57.1624384,103.894152 57.3868391,102.901296 57.8356473,102.075112 C58.2844556,101.248928 58.8852704,100.567699 59.63811,100.031404 C60.3909496,99.4951097 61.2595976,99.1037653 62.2440802,98.8573596 C63.2285627,98.6109538 64.2564629,98.4877528 65.3278115,98.4877528 C66.3991602,98.4877528 67.4270603,98.6254481 68.4115429,98.9008427 C69.3960254,99.1762373 70.2574347,99.582076 70.9957966,100.118371 C71.7341585,100.654666 72.3204959,101.335895 72.7548264,102.162079 C73.189157,102.988263 73.406319,103.952129 73.406319,105.053708 L73.406319,108.706292 L70.1488563,108.706292 C69.4249721,108.706292 68.8169185,108.488879 68.3246772,108.054045 C67.8324359,107.619211 67.586319,107.053936 67.586319,106.358202 L67.586319,105.445056 C67.586319,104.836289 67.3474408,104.365226 66.8696772,104.031854 C66.3919136,103.698481 65.8634861,103.531798 65.2843787,103.531798 C64.6763159,103.531798 64.1623659,103.705729 63.742513,104.053596 C63.3226602,104.401462 63.1127369,104.792807 63.1127369,105.22764 L63.1127369,108.619326 Z M95.9045278,98.8791011 C96.8890103,98.8791011 97.7359421,99.0965147 98.4453486,99.5313483 C99.1547552,99.9661819 99.7410926,100.509716 100.204379,101.161966 C100.667664,101.814217 101.007885,102.531681 101.22505,103.314382 C101.442215,104.097083 101.550796,104.821794 101.550796,105.488539 L101.550796,111.358764 C101.550796,112.431354 101.41326,113.416962 101.138184,114.315618 C100.863108,115.214274 100.436023,115.989716 99.8569158,116.641966 C99.2778084,117.294217 98.5394576,117.801515 97.6418412,118.163876 C96.7442248,118.526238 95.6728922,118.707416 94.4278113,118.707416 L91.7784084,118.707416 C91.3440778,118.707416 91.1269158,118.881347 91.1269158,119.229213 L91.1269158,125.795169 C91.1269158,126.085058 91.1703482,126.287977 91.2572143,126.403933 C91.3440804,126.519888 91.4454227,126.635842 91.5612442,126.751798 C91.7928871,126.925731 92.0245266,127.172133 92.2561695,127.491011 C92.4878125,127.809889 92.6036322,128.215728 92.6036322,128.708539 L92.6036322,131.447978 L83.6999009,131.447978 L83.6999009,128.708539 C83.6999009,128.215728 83.8157206,127.809889 84.0473636,127.491011 C84.2790065,127.172133 84.510646,126.925731 84.7422889,126.751798 C84.8581104,126.664831 84.9594527,126.563371 85.0463188,126.447416 C85.1331849,126.33146 85.1766173,126.143035 85.1766173,125.882135 L85.1766173,104.53191 C85.1766173,104.299999 85.1693786,104.111574 85.1549009,103.966629 C85.1404232,103.821685 85.0463197,103.691237 84.8725875,103.575281 C84.5830338,103.430336 84.2934844,103.183934 84.0039307,102.836067 C83.7143771,102.488201 83.5696024,102.009891 83.5696024,101.401124 L83.5696024,98.8791011 L95.9045278,98.8791011 Z M95.6439307,106.445169 C95.6439307,105.430557 95.3978138,104.763822 94.9055725,104.444944 C94.4133313,104.126066 93.84871,103.966629 93.2116919,103.966629 L92.2127367,103.966629 C91.7204954,103.995618 91.4164686,104.089831 91.3006472,104.24927 C91.1848257,104.408709 91.1269158,104.589887 91.1269158,104.792809 L91.1269158,113.402472 C91.1269158,113.576405 91.1775869,113.743089 91.2789307,113.902528 C91.3802745,114.061967 91.6770626,114.15618 92.1693039,114.185169 L93.1682591,114.185169 C94.1237863,114.185169 94.7752723,113.888037 95.1227367,113.293764 C95.4702011,112.699491 95.6439307,111.895061 95.6439307,110.880449 L95.6439307,106.445169 Z M118.967363,103.923146 C118.822587,103.923146 118.685051,103.98837 118.554751,104.11882 C118.424452,104.24927 118.359304,104.386966 118.359304,104.53191 L118.359304,111.750112 C118.359304,111.953035 118.424452,112.105224 118.554751,112.206685 C118.685051,112.308147 118.837064,112.358876 119.010796,112.358876 L124.483334,112.358876 C124.62811,112.358876 124.780124,112.409606 124.939378,112.511067 C125.098633,112.612529 125.178259,112.779212 125.178259,113.011124 L125.178259,116.489775 C125.178259,116.89562 124.961097,117.098539 124.526766,117.098539 L119.010796,117.098539 C118.576466,117.098539 118.359304,117.286964 118.359304,117.66382 L118.359304,125.795169 C118.359304,125.969102 118.431691,126.114044 118.576468,126.23 C118.721245,126.345956 118.880497,126.403933 119.054229,126.403933 L122.528856,126.403933 C122.789454,126.403933 122.992139,126.25899 123.136916,125.969101 C123.194826,125.824157 123.267214,125.650226 123.35408,125.447303 C123.440946,125.244381 123.564004,125.055956 123.723259,124.882022 C123.882513,124.708089 124.077959,124.5559 124.309602,124.425449 C124.541245,124.294999 124.816317,124.229775 125.134826,124.229775 L127.827662,124.229775 L127.827662,130.317416 C127.827662,130.636294 127.66841,130.89719 127.349901,131.100112 C127.031392,131.303035 126.712887,131.404494 126.394378,131.404494 L111.019154,131.404494 L111.019154,128.795506 C111.019154,128.15775 111.106019,127.672193 111.279751,127.33882 C111.453484,127.005448 111.685123,126.766293 111.974677,126.621348 C112.322141,126.418426 112.495871,126.114047 112.495871,125.708202 L112.495871,104.575393 C112.495871,104.111571 112.307664,103.778203 111.931244,103.575281 C111.64169,103.430336 111.41729,103.205676 111.258035,102.901292 C111.098781,102.596909 111.019154,102.154834 111.019154,101.575056 L111.019154,98.835618 L126.56811,98.835618 C126.915574,98.835618 127.212362,98.9660661 127.458483,99.2269663 C127.704603,99.4878665 127.827662,99.7342685 127.827662,99.9661798 L127.827662,105.705955 L125.265125,105.705955 C124.686017,105.705955 124.222738,105.561013 123.875274,105.271124 C123.527809,104.981235 123.281692,104.705844 123.136916,104.444944 C122.934228,104.097077 122.630201,103.923146 122.224826,103.923146 L118.967363,103.923146 Z M154.45199,124.099326 L154.45199,129.708652 C154.45199,130.28843 154.292738,130.71601 153.974229,130.991404 C153.65572,131.266799 153.380648,131.404494 153.149005,131.404494 L137.29602,131.404494 L137.29602,128.621573 C137.29602,127.983817 137.375646,127.49826 137.534901,127.164888 C137.694155,126.831515 137.918556,126.59236 138.208109,126.447416 C138.352886,126.389438 138.483184,126.287978 138.599005,126.143034 C138.714826,125.998089 138.772736,125.824158 138.772736,125.621236 L138.772736,104.53191 C138.772736,104.242021 138.736543,104.039102 138.664154,103.923146 C138.591766,103.80719 138.483185,103.691237 138.338408,103.575281 C138.106765,103.401347 137.875126,103.154945 137.643483,102.836067 C137.41184,102.517189 137.29602,102.111351 137.29602,101.618539 L137.29602,98.8791011 L146.243184,98.8791011 L146.243184,101.618539 C146.243184,102.111351 146.127364,102.517189 145.895721,102.836067 C145.664078,103.154945 145.432439,103.401347 145.200796,103.575281 C145.056019,103.691237 144.947438,103.80719 144.87505,103.923146 C144.802661,104.039102 144.766468,104.242021 144.766468,104.53191 L144.766468,125.664719 C144.766468,126.157531 144.954675,126.403933 145.331095,126.403933 L148.545124,126.403933 C148.747812,126.403933 148.943258,126.331461 149.131468,126.186517 C149.319678,126.041572 149.457214,125.89663 149.54408,125.751685 C149.688856,125.461796 149.934973,125.113935 150.282438,124.70809 C150.629902,124.302245 151.122136,124.099326 151.759154,124.099326 L154.45199,124.099326 Z M197.1899,98.8791011 C197.421543,98.8791011 197.66766,98.995055 197.928258,99.2269663 C198.188857,99.4588776 198.319154,99.7487623 198.319154,100.096629 L198.319154,105.792921 L196.451542,105.792921 C195.843479,105.792921 195.300574,105.647979 194.822811,105.35809 C194.345047,105.068201 194.033781,104.79281 193.889005,104.53191 C193.802139,104.386966 193.693558,104.256517 193.563258,104.140562 C193.432959,104.024606 193.208558,103.966629 192.890049,103.966629 L189.762885,103.966629 C189.560198,103.966629 189.386468,104.031853 189.241691,104.162303 C189.096914,104.292753 189.024527,104.444943 189.024527,104.618876 L189.024527,111.880562 C189.024527,112.141462 189.096914,112.315393 189.241691,112.40236 C189.386468,112.489326 189.574675,112.532809 189.806318,112.532809 L195.061691,112.532809 C195.293334,112.532809 195.452586,112.70674 195.539452,113.054607 C195.626318,113.402474 195.669751,113.677864 195.669751,113.880787 L195.669751,116.620225 C195.669751,117.026069 195.481544,117.228989 195.105124,117.228989 L189.67602,117.228989 C189.531243,117.228989 189.386468,117.286966 189.241691,117.402921 C189.096914,117.518877 189.024527,117.678314 189.024527,117.881236 L189.024527,125.708202 C189.024527,126.02708 189.067959,126.244494 189.154826,126.360449 C189.241692,126.476405 189.357511,126.577865 189.502288,126.664831 C189.733931,126.838765 189.958332,127.085167 190.175497,127.404045 C190.392662,127.722923 190.501243,128.128762 190.501243,128.621573 L190.501243,131.361011 L181.640945,131.361011 L181.640945,128.621573 C181.640945,128.128762 181.756765,127.722923 181.988408,127.404045 C182.220051,127.085167 182.45169,126.838765 182.683333,126.664831 C182.799154,126.577865 182.893258,126.490899 182.965646,126.403933 C183.038035,126.316966 183.088706,126.157529 183.117661,125.925618 L183.117661,104.575393 C183.117661,104.111571 182.943932,103.807192 182.596467,103.662247 C182.306914,103.517303 182.075274,103.285395 181.901542,102.966517 C181.72781,102.647639 181.640945,102.154835 181.640945,101.48809 L181.640945,98.8791011 L197.1899,98.8791011 Z M223.944527,126.447416 C224.17617,126.59236 224.393332,126.824268 224.596019,127.143146 C224.798707,127.462024 224.900049,127.867863 224.900049,128.360674 L224.900049,131.404494 L216.213482,131.404494 L216.213482,128.882472 C216.213482,128.360672 216.314824,127.882362 216.517512,127.447528 C216.720199,127.012694 216.937361,126.72281 217.169004,126.577865 C217.313781,126.46191 217.43684,126.345956 217.538184,126.23 C217.639527,126.114044 217.690198,125.925619 217.690198,125.664719 C217.661243,125.432808 217.632288,125.215394 217.603333,125.012472 C217.574377,124.838538 217.538184,124.65736 217.494751,124.468933 C217.451318,124.280505 217.415124,124.113821 217.386169,123.968876 C217.328258,123.736965 217.226916,123.584776 217.082139,123.512303 C216.937362,123.439831 216.749155,123.403596 216.517512,123.403596 L212.434825,123.403596 C212.174227,123.403596 211.993259,123.425337 211.891915,123.46882 C211.790571,123.512304 211.710945,123.678987 211.653034,123.968876 C211.624079,124.113821 211.595124,124.280505 211.566169,124.468933 C211.537213,124.65736 211.493781,124.838538 211.43587,125.012472 C211.377959,125.215394 211.334527,125.432808 211.305572,125.664719 C211.305572,125.925619 211.334527,126.114044 211.392437,126.23 C211.450348,126.345956 211.55169,126.46191 211.696467,126.577865 C211.92811,126.72281 212.145272,127.019942 212.34796,127.46927 C212.550647,127.918598 212.65199,128.404155 212.65199,128.925955 L212.65199,131.404494 L204.095721,131.404494 L204.095721,128.360674 C204.095721,127.867863 204.204302,127.462024 204.421467,127.143146 C204.638632,126.824268 204.848556,126.59236 205.051243,126.447416 C205.19602,126.33146 205.326317,126.201012 205.442139,126.056067 C205.55796,125.911123 205.644825,125.722698 205.702736,125.490787 C206.513486,121.635262 207.251837,118.171139 207.91781,115.098315 C208.207364,113.793814 208.482436,112.518321 208.743034,111.271798 C209.003633,110.025275 209.242511,108.909218 209.459676,107.923596 C209.676841,106.937973 209.850571,106.14079 209.98087,105.532022 C210.111169,104.923255 210.176318,104.604382 210.176318,104.575393 C210.234229,104.343482 210.263184,104.133316 210.263184,103.944888 C210.263184,103.75646 210.190796,103.633259 210.046019,103.575281 C209.72751,103.430336 209.466916,103.191181 209.264228,102.857809 C209.061541,102.524437 208.960198,102.024385 208.960198,101.35764 L208.960198,98.8791011 L215.692288,98.8791011 C216.358262,98.8791011 216.886689,99.0820204 217.277587,99.4878652 C217.668484,99.8937099 217.907362,100.343031 217.994228,100.835843 C217.994228,100.951798 218.073854,101.393873 218.233109,102.162079 C218.392363,102.930285 218.602287,103.901399 218.862885,105.075449 C219.123483,106.2495 219.413033,107.568476 219.731542,109.032416 C220.050051,110.496356 220.368555,111.982015 220.687064,113.489438 C221.439904,117.026085 222.308552,121.026495 223.293034,125.490787 C223.3799,125.867642 223.597062,126.186516 223.944527,126.447416 Z M216.039751,118.403034 C216.242438,118.403034 216.372735,118.381292 216.430646,118.337809 C216.488557,118.294326 216.503034,118.185619 216.474079,118.011685 C216.474079,117.953708 216.423408,117.649329 216.322064,117.098539 C216.22072,116.54775 216.104901,115.881015 215.974601,115.098315 C215.844302,114.315614 215.699528,113.467701 215.540273,112.554551 C215.381019,111.6414 215.236244,110.793487 215.105945,110.010787 C214.975646,109.228086 214.859826,108.575845 214.758482,108.054045 C214.657138,107.532245 214.606467,107.256854 214.606467,107.227865 C214.606467,107.11191 214.570273,107.06118 214.497885,107.075674 C214.425497,107.090169 214.374825,107.126404 214.34587,107.184382 C214.34587,107.213371 214.302438,107.496009 214.215572,108.032303 C214.128706,108.568598 214.012886,109.228086 213.868109,110.010787 C213.723332,110.793487 213.571319,111.634153 213.412064,112.532809 C213.25281,113.431465 213.100796,114.279378 212.956019,115.076573 C212.811243,115.873768 212.688184,116.54775 212.58684,117.098539 C212.485496,117.649329 212.434825,117.953708 212.434825,118.011685 C212.40587,118.185619 212.420347,118.294326 212.478258,118.337809 C212.536169,118.381292 212.666466,118.403034 212.869154,118.403034 L216.039751,118.403034 Z M252.045571,126.838764 C252.248259,126.983709 252.465421,127.208369 252.697064,127.512753 C252.928707,127.817136 253.044527,128.230222 253.044527,128.752022 L253.044527,131.534944 L248.180049,131.534944 C247.803629,131.534944 247.45617,131.426237 247.137661,131.20882 C246.819152,130.991403 246.54408,130.72326 246.312437,130.404382 C246.080794,130.085504 245.899826,129.737642 245.769527,129.360787 C245.639227,128.983931 245.574079,128.636069 245.574079,128.317191 L245.574079,120.70764 C245.574079,120.18584 245.494453,119.765507 245.335198,119.446629 C245.175944,119.127751 244.987737,118.881349 244.770571,118.707416 C244.553406,118.533482 244.314528,118.417528 244.05393,118.359551 C243.793331,118.301573 243.561692,118.272584 243.359004,118.272584 L242.403482,118.272584 C241.911241,118.301573 241.599975,118.35955 241.469676,118.446517 C241.339377,118.533484 241.274228,118.721909 241.274228,119.011798 L241.274228,125.925618 C241.274228,126.186518 241.397287,126.418426 241.643407,126.621348 C241.889528,126.824271 242.084974,126.998202 242.229751,127.143146 C242.461393,127.375057 242.606168,127.621459 242.664079,127.88236 C242.72199,128.14326 242.750945,128.534604 242.750945,129.056404 L242.750945,131.534944 L234.064377,131.534944 L234.064377,129.186854 C234.064377,128.694042 234.100571,128.266462 234.172959,127.904101 C234.245348,127.54174 234.397361,127.288091 234.629004,127.143146 C234.773781,127.02719 234.918556,126.846012 235.063333,126.599607 C235.208109,126.353201 235.280497,126.114046 235.280497,125.882135 L235.280497,105.097191 C235.280497,104.86528 235.266019,104.604383 235.237064,104.314494 C235.208109,104.024605 235.135721,103.850674 235.0199,103.792697 C234.788257,103.647752 234.571095,103.415844 234.368407,103.096966 C234.16572,102.778088 234.064377,102.328767 234.064377,101.748989 L234.064377,99.0095506 L244.835721,99.0095506 C247.007373,99.0095506 248.650566,99.6835326 249.765348,101.031517 C250.880129,102.379501 251.437512,104.126057 251.437512,106.271236 L251.437512,110.184719 C251.437512,111.112364 251.321692,111.960277 251.090049,112.728483 C250.858406,113.496689 250.453037,114.127189 249.87393,114.62 C249.816019,114.648989 249.772586,114.728707 249.743631,114.859157 C249.714676,114.989607 249.772586,115.098314 249.917362,115.185281 C250.554381,115.678092 250.974227,116.207132 251.176915,116.772416 C251.379602,117.337699 251.480945,118.156624 251.480945,119.229213 L251.480945,125.925618 C251.480945,126.186518 251.538854,126.374943 251.654676,126.490899 C251.770497,126.606855 251.900795,126.722808 252.045571,126.838764 Z M245.704377,106.836517 C245.704377,105.821905 245.566841,105.111687 245.291765,104.705843 C245.016689,104.299998 244.415875,104.097079 243.489303,104.097079 L241.708557,104.097079 C241.419003,104.097079 241.274228,104.328986 241.274228,104.792809 L241.274228,112.619775 C241.274228,112.909664 241.332138,113.090842 241.447959,113.163315 C241.563781,113.235787 241.824375,113.272022 242.229751,113.272022 L243.228706,113.272022 C243.981545,113.272022 244.58236,113.141574 245.031168,112.880674 C245.479977,112.619774 245.704377,111.982028 245.704377,110.967416 L245.704377,106.836517 Z M290.657362,101.705506 C290.657362,102.198317 290.577736,102.596909 290.418482,102.901292 C290.259227,103.205676 290.078259,103.444831 289.875571,103.618764 C289.643928,103.821686 289.397811,103.966629 289.137213,104.053596 L289.137213,125.751685 L289.180646,125.751685 C289.180646,126.041574 289.21684,126.244494 289.289228,126.360449 C289.361616,126.476405 289.470197,126.592359 289.614974,126.708315 C289.846617,126.882248 290.078257,127.12865 290.3099,127.447528 C290.541543,127.766406 290.657362,128.172245 290.657362,128.665056 L290.657362,131.404494 L281.710198,131.404494 L281.710198,128.665056 C281.710198,128.172245 281.826018,127.766406 282.057661,127.447528 C282.289304,127.12865 282.520943,126.882248 282.752586,126.708315 C282.897363,126.592359 283.005944,126.476405 283.078332,126.360449 C283.150721,126.244494 283.186915,126.041574 283.186915,125.751685 L283.186915,113.141573 C283.186915,113.083595 283.179676,113.040113 283.165198,113.011124 C283.15072,112.982135 283.114527,113.025617 283.056616,113.141573 C282.187955,114.504052 281.406172,115.750556 280.711243,116.881124 C280.392734,117.373935 280.088707,117.852245 279.799153,118.316067 C279.5096,118.77989 279.249005,119.20747 279.017362,119.59882 C278.785719,119.99017 278.583035,120.330785 278.409303,120.620674 C278.23557,120.910563 278.119751,121.098988 278.06184,121.185955 C277.917063,121.446855 277.685424,121.63528 277.366915,121.751236 C277.048405,121.867192 276.715424,121.925169 276.367959,121.925169 C276.020495,121.925169 275.687513,121.867192 275.369004,121.751236 C275.050495,121.63528 274.833333,121.461349 274.717512,121.229438 C274.659601,121.142471 274.55102,120.954046 274.391765,120.664157 C274.232511,120.374268 274.037065,120.026407 273.805422,119.620562 C273.573779,119.214717 273.313185,118.772643 273.023631,118.294326 C272.734077,117.816009 272.444528,117.330452 272.154974,116.83764 C271.460045,115.678084 270.69274,114.388097 269.853034,112.96764 C269.824079,112.909663 269.780646,112.880674 269.722735,112.880674 C269.664825,112.880674 269.63587,112.938651 269.63587,113.054607 L269.63587,125.751685 C269.63587,126.041574 269.672063,126.244494 269.744452,126.360449 C269.81684,126.476405 269.925421,126.592359 270.070198,126.708315 C270.301841,126.882248 270.533481,127.12865 270.765123,127.447528 C270.996766,127.766406 271.112586,128.172245 271.112586,128.665056 L271.112586,131.404494 L262.208855,131.404494 L262.208855,128.665056 C262.208855,128.172245 262.324675,127.766406 262.556318,127.447528 C262.78796,127.12865 263.0196,126.882248 263.251243,126.708315 C263.367064,126.592359 263.461168,126.483652 263.533556,126.382191 C263.605945,126.28073 263.656616,126.099552 263.685571,125.838652 L263.685571,104.053596 C263.367062,103.966629 263.09199,103.821686 262.860347,103.618764 C262.65766,103.444831 262.476691,103.205676 262.317437,102.901292 C262.158182,102.596909 262.078556,102.198317 262.078556,101.705506 L262.078556,98.8791011 L268.246019,98.8791011 C268.448707,98.8791011 268.622436,98.929831 268.767213,99.0312921 C268.91199,99.1327533 269.056765,99.357414 269.201541,99.7052809 C269.46214,100.285059 269.809599,101.002524 270.243929,101.857697 C270.67826,102.712869 271.141539,103.611512 271.63378,104.553652 C272.126021,105.495791 272.632733,106.437917 273.153929,107.380056 C273.675126,108.322196 274.138405,109.170109 274.54378,109.92382 C274.949155,110.677532 275.289376,111.293537 275.564452,111.771854 L275.977064,112.489326 C276.121841,112.692248 276.266615,112.800955 276.411392,112.815449 C276.556169,112.829944 276.700944,112.721237 276.84572,112.489326 C277.22214,111.880559 277.613032,111.213824 278.018407,110.489101 C278.365871,109.880334 278.756763,109.199105 279.191094,108.445393 C279.625424,107.691682 280.088703,106.908993 280.580944,106.097303 C281.681248,104.242013 282.940788,102.125855 284.359601,99.748764 C284.533333,99.3719082 284.714302,99.1327533 284.902512,99.0312921 C285.090721,98.929831 285.300645,98.8791011 285.532288,98.8791011 L290.657362,98.8791011 L290.657362,101.705506 Z" id="GOSPEL-FARM" fill="#3D3C3B"></path>
            </g>
        </g>
    </g>
</svg>