<?xml version="1.0" encoding="UTF-8"?>
<svg width="122px" height="46px" viewBox="0 0 122 46" version="1.1" xmlns="http://www.w3.org/2000/svg" xmlns:xlink="http://www.w3.org/1999/xlink">
    <!-- Generator: Sketch 45.1 (43504) - http://www.bohemiancoding.com/sketch -->
    <title>logo_gw</title>
    <desc>Created with Sketch.</desc>
    <defs></defs>
    <g id="Page-1" stroke="none" stroke-width="1" fill="none" fill-rule="evenodd">
        <g id="logo_gw" fill="#133150">
            <g id="Page-1" transform="translate(1.000000, 1.000000)">
                <path d="M61.1945667,22.7388641 C60.9809,22.736513 60.8169,22.8003298 60.7072333,22.9276275 C60.5405667,23.1217649 60.3342333,23.6161771 60.0952333,24.1888489 C59.4862333,25.6492458 58.6515667,27.6497344 57.3275667,27.6356275 C57.1485667,27.6339481 56.9649,27.5939786 56.7812333,27.5173985 C55.7275667,27.0770626 55.0595667,25.3348641 55.0382333,22.9706198 L55.0375667,22.9024366 L55.0979,22.8712 C56.2915667,22.252513 59.2922333,20.3783145 61.3712333,16.3413985 C61.6215667,15.8557191 61.8012333,15.4042992 61.9285667,14.9824366 C61.9289,15.3173069 61.9305667,15.6548641 61.9345667,15.9988031 C61.9662333,18.6320855 62.0289,21.0856733 62.2679,23.1210931 C61.9239,22.9044519 61.5319,22.7425588 61.1945667,22.7388641 M55.1639,21.0463756 C55.3789,19.8798718 55.6652333,18.8514137 56.1065667,17.9455511 C56.9685667,16.2752305 58.1635667,14.5457954 58.7762333,14.1968183 C59.7145667,13.6624366 60.0115667,14.0073832 59.6089,15.333429 C59.2062333,16.6584672 57.0335667,19.3350779 55.1565667,21.0977649 C55.1589,21.0806351 55.1615667,21.0635053 55.1639,21.0463756 M14.7649,24.7944366 C14.5429,25.5189252 14.2389,26.5107725 13.4192333,27.9960244 C12.7792333,29.1561466 12.2252333,29.7425893 11.7732333,29.7375511 C11.6185667,29.7362076 11.4805667,29.6683603 11.3635667,29.5373679 C10.9179,29.0382534 10.8692333,27.7004519 10.9722333,26.6152305 C11.2389,23.8042687 12.1919,18.5047878 14.0715667,16.472055 L14.1035667,16.4388031 C14.1675667,16.3709557 14.2279,16.3135206 14.2892333,16.254742 C14.5045667,16.0582534 14.7292333,15.9067725 14.9565667,15.8046656 C14.9859,15.7912305 15.0139,15.7831695 15.0662333,15.7693985 C15.0822333,15.7646962 15.0985667,15.7606656 15.1209,15.7586504 C15.1399,15.7566351 15.1585667,15.7562992 15.1765667,15.7562992 C15.3259,15.7579786 15.4542333,15.8204519 15.5579,15.9417038 C16.1862333,16.6779481 14.9239,24.2755053 14.7649,24.7944366 M27.4595667,11.5981313 C27.8972333,11.4238107 28.7655667,11.9669252 28.2972333,12.9973985 C27.6749,14.2240244 26.1725667,14.5229557 24.9505667,14.5169099 C26.0975667,12.503658 26.9965667,11.7825282 27.4595667,11.5981313 M68.1595667,25.4020397 C67.9645667,25.4000244 67.8025667,25.5054901 67.6809,25.7093679 C67.3565667,26.3384672 67.1262333,26.5944061 66.8842333,26.5917191 C66.4669,26.5873527 66.1722333,25.8205435 65.7155667,23.5523603 C64.8695667,19.3471695 64.2035667,11.0583756 67.0735667,6.6671084 C68.4799,4.51480305 68.9699,2.83843664 68.5299,1.68469618 C68.0905667,0.533978626 66.8285667,0.203138931 66.2895667,0.0617343511 C66.1392333,0.0224366412 65.9905667,0.00161221374 65.8472333,-6.71755727e-05 C65.3815667,-0.00476946565 64.9455667,0.194406107 64.5509,0.592757252 C63.0889,2.0682687 62.1839,6.19755115 61.9752333,12.1503145 C61.8835667,11.876574 61.7702333,11.6354137 61.6472333,11.4295206 C60.9715667,10.2959328 59.7459,9.67489466 58.9355667,9.66649771 C58.7729,9.66481832 58.6292333,9.68866565 58.5199,9.73568855 C57.5519,10.1501618 54.9882333,11.8997496 53.3725667,15.1342534 C52.8439,11.3210321 50.9875667,9.31181069 49.2905667,9.29400916 C49.0992333,9.29199389 48.9125667,9.31752061 48.7355667,9.37025344 C47.3052333,9.79446718 45.4595667,10.664055 43.8709,13.6469863 L43.6899,13.985887 L43.6495667,13.3819786 C43.6242333,13.0054595 43.6042333,12.7061924 43.5915667,12.4942534 C43.4492333,10.0735817 42.7099,9.07938321 41.0395667,9.06158168 C40.8935667,9.05990229 40.7375667,9.06628397 40.5765667,9.07971908 C38.4595667,9.26109313 37.7119,10.1652763 37.7149,10.8847267 C37.7152333,11.0254595 37.7612333,11.0674443 37.8842333,11.1802992 C38.2015667,11.4715053 38.7919,12.0126046 39.2575667,15.0341618 C39.3269,15.4839023 39.3912333,16.0176122 39.4509,16.6154748 C38.6922333,15.9030779 37.7119,15.1540702 36.4392333,14.3815511 C34.8879,13.4394137 34.0325667,12.0559328 34.0925667,10.5864672 C34.1582333,8.99810076 35.2392333,7.56625344 37.0592333,6.65837557 C37.7582333,6.30939847 38.4909,6.13675725 39.2369,6.14481832 C40.0512333,6.15321527 40.8839,6.3742229 41.7132333,6.8021313 C42.0435667,6.30671145 42.3519,5.60136794 42.0912333,4.91516947 C41.8025667,4.15574962 40.8832333,3.59349008 39.3585667,3.24350534 C38.7385667,3.10075725 38.0769,3.02518473 37.3925667,3.01779542 C34.1532333,2.98387176 30.2542333,4.56149008 29.3472333,8.10600916 C28.2369,12.4462229 31.3089,14.970345 34.2755667,16.9950168 C37.5062333,19.200055 38.0535667,20.6933679 38.1625667,21.8635664 C38.2345667,22.6340702 38.0389,23.8402076 37.2509,24.7037496 C36.5735667,25.4453679 35.5892333,25.8148336 34.3245667,25.8017344 C34.1915667,25.8003908 34.0542333,25.7946809 33.9119,25.7842687 C32.4962333,25.6821618 31.5835667,24.3520855 31.6499,23.2221924 C31.7029,22.3217038 32.3062333,21.5700092 33.1609,21.3278412 C33.2009,20.712513 33.0245667,20.168055 32.6495667,19.7485435 C32.2582333,19.3108947 31.6815667,19.0562992 31.0679,19.0499176 C30.7179,19.0462229 30.3469,19.1254901 29.9932333,19.3055206 C30.0732333,17.6217649 29.8322333,16.1539786 29.3249,15.3354443 C29.2975667,15.3341008 29.2702333,15.3330931 29.2432333,15.3327573 C27.9102333,15.3189863 26.7599,16.5970015 26.5439,16.8519328 C27.6095667,20.4525435 27.6792333,23.0552611 26.7505667,24.5885435 C26.2915667,25.346284 25.5942333,25.8175206 24.6779,25.9881466 C24.5665667,26.0093069 24.4569,26.0190473 24.3519,26.0180397 L24.3519,26.0180397 C23.8419,26.0126656 23.4265667,25.7557191 23.1169,25.2542534 C22.0929,23.5973679 22.4815667,19.4385282 23.9482333,16.3551695 C24.1025667,16.0310473 24.2612333,15.7186809 24.4199,15.4264672 L24.4635667,15.3646656 L24.5339,15.3697038 C24.7292333,15.3841466 24.9229,15.3918718 25.1082333,15.393887 C27.2629,15.4167267 28.7625667,14.5864366 29.2229,13.1162992 C29.6065667,11.8906809 29.1702333,10.4652153 28.2075667,9.80051298 C27.7889,9.51165802 27.2395667,9.35513893 26.6192333,9.34875725 C24.8895667,9.33061985 22.9829,10.4450626 21.5182333,12.3300092 L21.4409,12.429429 L21.3535667,12.3394137 C20.1699,11.1235359 19.2422333,9.75852824 18.7439,9.02497099 C18.5625667,8.75861985 18.4062333,8.52854351 18.3595667,8.48857405 C18.3595667,8.48857405 18.3402333,8.47581069 18.2742333,8.47513893 C17.7552333,8.46976489 15.9322333,9.26881832 15.7615667,10.3684824 C15.6302333,11.2135511 17.2249,13.1330931 20.1202333,14.3409099 L20.2292333,14.3862534 L20.1762333,14.4923908 C19.7425667,15.3670168 19.3665667,16.3417344 19.0595667,17.390345 C18.9732333,17.6849099 18.8959,17.9747725 18.8239,18.2626198 C18.6262333,17.2774901 18.3515667,16.3497954 17.9782333,15.5272305 C17.4405667,14.3432611 16.4582333,13.6839328 15.2119,13.6708336 C11.9239,13.6362382 7.1529,18.1689099 6.7479,26.7687267 C6.66056667,28.6197496 7.02923333,29.9992 7.8439,30.8687878 C8.5799,31.6544061 9.5089,31.828055 10.1589,31.8347725 C11.2012333,31.8455206 12.3092333,31.4360855 12.9812333,30.7918718 C13.4872333,30.3061924 13.9725667,29.696574 14.4232333,28.9798107 L14.6252333,29.0506809 C14.3299,31.9096733 13.0545667,41.2873832 9.0269,41.9144672 C7.3089,41.8842382 6.10423333,39.8981924 5.3959,38.2369405 C4.53323333,36.2132763 4.0919,33.9679328 4.04756667,32.7379481 C3.9879,31.0941618 3.07223333,30.3491847 2.19156667,30.3397802 C1.50023333,30.3323908 0.812233333,30.7508947 0.3509,31.4592611 C0.0979,31.8468641 -0.0251,32.5706809 0.00423333333,33.4963603 L0.00356666667,33.7217344 C0.204233333,38.7693069 2.1099,41.2779786 3.68656667,42.4968794 C3.80556667,42.5889099 3.9229,42.6715359 4.03923333,42.7504672 C5.17856667,43.5283603 6.55023333,43.9475359 8.00556667,43.9626504 L8.0059,43.9626504 C9.49856667,43.9781008 10.9715667,43.5575817 11.9459,42.8371237 C13.2912333,41.8422534 17.7692333,37.9074443 18.9235667,29.036574 C18.9855667,28.4598718 19.0322333,27.9123908 19.0662333,27.3847267 L19.0642333,27.3709557 L19.0655667,27.3585282 C19.0945667,27.0397802 19.1205667,26.7069252 19.1449,26.3686962 C19.2372333,26.5312611 19.3349,26.6884519 19.4422333,26.8345588 C20.2979,28.0003908 21.5649,28.6006046 23.2082333,28.6177344 L23.2085667,28.6177344 C23.4449,28.6204214 23.6922333,28.610345 23.9435667,28.5881771 C26.4109,28.3695206 27.8725667,26.3589557 28.6645667,24.7108031 C28.6959,24.6456427 28.7225667,24.5781313 28.7529,24.5119634 C28.9215667,24.8683298 29.1352333,25.2126046 29.4062333,25.5410931 C30.7635667,27.1852153 33.1432333,28.0632 34.7922333,28.0803298 C34.8435667,28.0810015 34.8939,28.0806656 34.9439,28.079658 C36.5702333,28.0453985 38.4839,27.4465282 39.9032333,26.0177038 C39.9812333,30.5812763 39.9119,35.4961771 39.6672333,39.1243298 C39.6532333,39.3329099 39.6955667,39.4877496 39.7969,39.5979176 C39.9822333,39.800116 40.3839,39.8897954 41.1402333,39.8975206 L41.3202333,39.8981924 C42.5965667,39.8934901 43.5819,39.7991084 43.6902333,38.6624977 C44.2155667,33.1604824 44.3125667,26.5876885 43.9792333,19.1123908 C44.2885667,15.5191695 45.1015667,14.2391389 46.2269,13.4226198 C46.4515667,13.2593832 46.6819,13.1777649 46.9112333,13.1804519 C48.0229,13.1918718 48.8759,15.1070473 49.0842333,18.0594137 C49.3385667,21.6650626 47.3432333,25.6035664 46.4492333,26.088574 C46.2672333,26.1869863 46.1075667,26.2632305 45.9685667,26.3297344 C45.4282333,26.5873527 45.2649,26.6649405 45.2669,27.2984061 C45.2699,27.3266198 45.3535667,27.9879634 46.4979,28.0003908 L46.4982333,28.0003908 C46.9332333,28.0047573 47.4672333,27.9137344 48.0845667,27.7290015 C49.4909,27.3091542 50.9702333,25.6559634 52.0289,23.4364824 C52.2275667,25.0809405 52.6985667,26.5631695 53.4225667,27.6517496 C54.1735667,28.7806351 55.1372333,29.4446656 56.2869,29.6243603 C56.4739,29.6532458 56.6639,29.6690321 56.8522333,29.6710473 L56.8525667,29.6710473 C59.5035667,29.6989252 61.6965667,27.032055 62.6582333,25.3872611 C63.0055667,26.7962687 63.5235667,27.8307725 64.3039,28.3413069 C64.7059,28.6042992 65.1492333,28.7406656 65.6209,28.7457038 L65.6212333,28.7457038 C66.8402333,28.7584672 68.1499,27.8613374 68.9615667,26.4546809 C69.0439,26.3300702 69.0322333,26.146345 68.9292333,25.9501924 C68.7669,25.6408489 68.4359,25.4050626 68.1595667,25.4020397" id="Fill-1"></path>
                <path d="M111.481667,21.4273282 C111.820667,20.311542 112.309333,19.2615878 112.895667,18.3909924 C114.078667,16.6340153 115.201667,15.4208244 115.654333,15.4255267 C115.744333,15.4265344 115.819333,15.4614656 115.876667,15.529313 C116.031333,15.7127023 116.198667,16.057313 115.994667,16.5967328 C115.692333,17.3961221 113.988667,19.6381069 111.892,21.3917252 L111.424333,21.6160916 L111.481667,21.4273282 Z M117.738333,23.1654962 C117.419667,23.1624733 117.175333,23.2407328 117.031333,23.3932214 C116.858,23.5769466 116.645667,24.0609466 116.400333,24.6215267 C115.779333,26.0382595 114.841,28.0400916 113.327333,28.0243053 C113.201,28.0229618 113.071333,28.0065038 112.941333,27.9752672 C111.727,27.6833893 111.104667,26.1574962 111.317333,23.7704122 L111.320333,23.7381679 L111.348667,23.7230534 C112.550333,23.080855 115.552,21.2177405 117.46,17.7978321 C118.258,16.3676641 118.377,15.0839389 117.804,14.085374 C117.153,12.9501069 115.692333,12.3445191 114.586333,12.3327634 C114.308,12.3300763 114.069667,12.3670229 113.897333,12.4405802 C112.962667,12.8385954 110.656667,14.294626 109.077,16.7304122 C110.547333,12.1238473 110.134,11.0245191 109.021667,10.4898015 C108.827333,10.3960916 108.620333,10.3336183 108.414,10.2949924 C108.302667,10.1176489 108.189333,10.0817099 108.082,10.2459542 C108.080333,10.2483053 108.079333,10.2503206 108.078,10.2523359 C107.163,10.2032977 106.400333,10.6634504 106.980667,11.4094351 C107.320667,11.8464122 107.476,12.4378931 107.504667,13.1627176 C107.482333,13.774687 107.448333,14.4686107 107.338,15.2696794 C107.276333,15.6650076 107.200333,16.0811603 107.114333,16.5157863 C106.416333,19.7086412 105.272333,20.5580763 105.261333,20.5715115 L105.177333,20.6739542 L105.158,20.5422901 C104.319,14.7809771 103.268,12.1765802 99.259,11.9774046 C99.0896667,11.9686718 98.9273333,11.9639695 98.7716667,11.9622901 C97.165,11.9454962 96.1043333,12.2699542 95.621,12.9265954 C95.2663333,13.4082443 95.347,13.9312061 95.381,14.0840305 C95.415,14.0823511 95.4483333,14.0816794 95.4813333,14.0820153 C98.8466667,14.1172824 100.989333,24.0045191 101.324333,26.1343206 C101.283667,26.1810076 101.243667,26.226687 101.198667,26.2810992 C100.837,26.7200916 100.527333,26.9320305 100.252,26.9293435 C99.5366667,26.9216183 99.1886667,25.5032061 98.7746667,23.4990229 C98.676,22.9639695 98.5723333,22.3842443 98.4586667,21.7396947 C98.3303333,21.0135267 97.9516667,20.7135878 97.152,20.7051908 C96.9786667,20.7035115 96.7863333,20.7152672 96.5626667,20.7414656 C95.197,20.9023511 94.306,22.1749924 93.9763333,22.7359084 C94.4473333,25.7154809 93.665,28.5328244 92.1916667,29.1545344 C91.966,29.2495878 91.7553333,29.2969466 91.5646667,29.2949313 C91.274,29.2919084 91.0276667,29.1767023 90.8323333,28.9523359 C90.422,28.4807634 90.258,27.5285496 90.3936667,26.405374 C90.616,24.5634198 91.9073333,20.9463511 95.3363333,19.0708092 L95.3763333,19.0489771 L95.407,19.082229 C95.4126667,19.0882748 95.596,19.494687 96.0396667,19.8228397 C96.1186667,19.8816183 96.229,19.9118473 96.3673333,19.9135267 C96.8886667,19.9189008 97.757,19.8628092 97.6676667,19.1457099 C97.6386667,18.9139542 97.0883333,16.4445802 95.963,15.4235115 C95.7066667,15.1907481 95.3253333,15.0651298 94.861,15.0604275 C93.4756667,15.0456489 91.2833333,16.123145 89.774,18.2109618 C87.837,20.888916 85.2006667,27.3760611 87.8833333,30.2370687 C88.8206667,31.2363053 89.8816667,31.7703511 90.952,31.781771 C92.751,31.8005802 94.401,30.3804885 95.3663333,27.9823206 L95.4793333,28.0011298 C95.5336667,28.9116947 95.7413333,29.5438168 96.102,29.8860763 C96.1493333,29.947542 96.1896667,29.9918779 96.229,30.0261374 C96.229,30.0261374 96.244,30.0385649 96.331,30.0486412 C96.483,30.1282443 96.658,30.1695573 96.8513333,30.1715725 L96.8516667,30.1715725 C98.1656667,30.1853435 100.090667,28.4078779 100.912667,27.6487939 C101.086667,27.4879084 101.212667,27.3716947 101.29,27.310229 C101.355333,27.2581679 101.412,27.208458 101.467667,27.159084 C101.670667,28.2490076 102.054,28.7847328 102.697333,28.9083359 C102.766333,28.921771 102.837667,28.9288244 102.909,28.9294962 C103.489,28.935542 104.652667,28.5136794 105.927,25.6200916 C106.334333,24.6957557 106.906333,23.2007634 107.456667,21.6325496 C107.307,23.8547176 107.840333,25.9952672 108.967667,27.4838779 C109.907333,28.7246107 111.2,29.4131603 112.706667,29.4749618 C112.763,29.477313 112.818,29.4786565 112.874,29.4793282 L112.874667,29.4793282 C115.127667,29.5025038 116.926,28.1519389 118.038,27.0146565 C119.201,25.8246412 119.899333,24.5550229 119.891667,24.2601221 C119.881667,23.8527023 118.677,23.1755725 117.738333,23.1654962 L117.738333,23.1654962 Z" id="Fill-4"></path>
                <path d="M91.7684667,14.4204794 C92.2241333,14.0795634 92.4201333,13.7601435 92.3351333,13.4964794 C92.3138,13.4296397 92.2698,13.3678382 92.2144667,13.3100672 C92.0894667,12.8932427 89.9144667,11.2877466 88.4644667,12.7897924 C87.0141333,14.2915023 84.4764667,17.4981282 83.5458,22.8547084 L83.3468,23.3057924 C83.0914667,21.7258229 82.6608,19.2248763 82.4221333,18.5940977 C82.2164667,18.0503115 80.8218,17.8424031 79.5851333,17.8296397 C79.0561333,17.8239298 78.5381333,17.8521435 78.1141333,17.9055481 C77.7254667,17.9549221 77.4391333,18.2887847 77.4311333,18.6834412 C77.3884667,20.8706779 77.3081333,25.0587389 76.9284667,25.055716 L76.9284667,25.055716 C76.9118,25.0553802 76.8868,25.0506779 76.8631333,25.0275023 C72.6494667,20.9516244 71.4018,17.3103725 72.8534667,13.8189221 C73.4854667,12.2980672 74.8278,11.7704031 75.7851333,11.7804794 C76.3244667,11.7858534 76.7848,11.9507695 77.0811333,12.2443267 C77.5931333,12.7501588 77.8108,13.4880824 77.6104667,14.039258 C77.4724667,14.4191359 77.1611333,14.655258 76.7284667,14.7100061 C77.0938,15.6420672 77.9344667,16.2026473 78.9928,16.2137313 C80.0318,16.2248153 81.0934667,15.6948 81.7621333,14.831258 C82.3218,14.1087847 82.8804667,12.8317771 82.3658,10.8487542 C81.8101333,8.70652519 79.4291333,6.52600611 75.3631333,6.48301374 C72.2058,6.45009771 69.5458,7.81141069 68.2484667,10.1246015 C65.3961333,15.2108 67.1764667,21.6929069 73.8511333,30.5248153 C74.0478,30.7851206 75.0264667,31.2697924 76.0358,31.2802046 C76.6998,31.287258 77.2358,31.0793496 77.5861333,30.6793191 C78.0344667,30.1671053 79.3271333,24.6832275 79.3198,22.4647542 L79.4358,22.4536702 C79.6848,23.7686321 79.8831333,25.2847847 80.0424667,26.5033496 C80.1918,27.6419756 80.3201333,28.6257618 80.4071333,28.7567542 C80.9048,29.5087847 81.7414667,29.6747084 82.3561333,29.6810901 C83.1258,29.6891511 84.0031333,29.4486626 84.7678,29.0207542 C86.7801333,19.3175786 88.0701333,17.1860977 91.7684667,14.4204794" id="Fill-6"></path>
            </g>
        </g>
    </g>
</svg>